<svg xmlns="http://www.w3.org/2000/svg" fill="none" viewBox="0 0 1200 400"><defs><linearGradient id="bg" x1="0" x2="1200" y1="0" y2="400" gradientUnits="userSpaceOnUse"><stop offset="0%" stop-color="#0a0e14"/><stop offset="100%" stop-color="#151920"/></linearGradient><linearGradient id="glow" x1="0" x2="0" y1="0" y2="1" gradientUnits="objectBoundingBox"><stop offset="0%" stop-color="#18BC9C" stop-opacity=".3"/><stop offset="100%" stop-color="#18BC9C" stop-opacity="0"/></linearGradient></defs><rect width="1200" height="400" fill="url(#bg)"/><g stroke="#30363d" stroke-width=".5" opacity=".4"><line x1="0" x2="1200" y1="80" y2="80"/><line x1="0" x2="1200" y1="160" y2="160"/><line x1="0" x2="1200" y1="240" y2="240"/><line x1="0" x2="1200" y1="320" y2="320"/><line x1="200" x2="200" y1="0" y2="400"/><line x1="400" x2="400" y1="0" y2="400"/><line x1="600" x2="600" y1="0" y2="400"/><line x1="800" x2="800" y1="0" y2="400"/><line x1="1000" x2="1000" y1="0" y2="400"/></g><rect width="440" height="320" x="80" y="40" fill="#151920" stroke="#30363d" stroke-width="1.5" rx="12"/><circle cx="108" cy="64" r="6" fill="#f85149"/><circle cx="128" cy="64" r="6" fill="#d29922"/><circle cx="148" cy="64" r="6" fill="#3fb950"/><text x="260" y="68" fill="#8b949e" font-family="monospace" font-size="12" text-anchor="middle">old-stack.toml</text><text x="104" y="105" fill="#8b949e" font-family="monospace" font-size="14">[dependencies]</text><text x="104" y="130" fill="#f85149" font-family="monospace" font-size="14">hugo = &quot;0.75.1&quot;</text><text x="104" y="155" fill="#f85149" font-family="monospace" font-size="14">bootstrap = &quot;3.x&quot;</text><text x="104" y="180" fill="#f85149" font-family="monospace" font-size="14">jquery = &quot;1.x&quot;</text><text x="104" y="205" fill="#f85149" font-family="monospace" font-size="14">angular = &quot;1.x&quot;</text><text x="104" y="230" fill="#f85149" font-family="monospace" font-size="14">highlight = &quot;9.x&quot;</text><text x="104" y="270" fill="#8b949e" font-family="monospace" font-size="13"># Last updated: 2020</text><text x="104" y="295" fill="#8b949e" font-family="monospace" font-size="13"># Status: end-of-life</text><g transform="translate(560, 180)"><line x1="0" x2="60" y1="0" y2="0" stroke="#18BC9C" stroke-linecap="round" stroke-width="3"/><polygon fill="#18BC9C" points="60 -8 78 0 60 8"/><text x="39" y="28" fill="#18BC9C" font-family="monospace" font-size="12" text-anchor="middle">migrate</text></g><rect width="440" height="320" x="680" y="40" fill="#151920" stroke="#18BC9C" stroke-opacity=".4" stroke-width="1.5" rx="12"/><rect width="440" height="320" x="680" y="40" fill="url(#glow)" opacity=".15" rx="12"/><circle cx="708" cy="64" r="6" fill="#f85149"/><circle cx="728" cy="64" r="6" fill="#d29922"/><circle cx="748" cy="64" r="6" fill="#3fb950"/><text x="860" y="68" fill="#18BC9C" font-family="monospace" font-size="12" text-anchor="middle">new-stack.toml</text><text x="704" y="105" fill="#8b949e" font-family="monospace" font-size="14">[dependencies]</text><text x="704" y="130" fill="#3fb950" font-family="monospace" font-size="14">astro = &quot;5.17&quot;</text><text x="704" y="155" fill="#3fb950" font-family="monospace" font-size="14">react = &quot;19.x&quot;</text><text x="704" y="180" fill="#3fb950" font-family="monospace" font-size="14">tailwind = &quot;4.x&quot;</text><text x="704" y="205" fill="#3fb950" font-family="monospace" font-size="14">mdx = &quot;4.x&quot;</text><text x="704" y="230" fill="#3fb950" font-family="monospace" font-size="14">typescript = &quot;5.x&quot;</text><text x="704" y="270" fill="#18BC9C" font-family="monospace" font-size="13"># Status: modern</text><text x="704" y="295" fill="#18BC9C" font-family="monospace" font-size="13"># JS shipped: 0kb (default)</text><text x="600" y="390" fill="#8b949e" font-family="monospace" font-size="11" opacity=".6" text-anchor="middle">$ astro build &amp;&amp; echo &quot;22 posts migrated&quot; ✓</text></svg>