<svg xmlns="http://www.w3.org/2000/svg" viewBox="0 0 1200 400" fill="none">
  <defs>
    <linearGradient id="bg" x1="0" y1="0" x2="1200" y2="400" gradientUnits="userSpaceOnUse">
      <stop offset="0%" stop-color="#0a0e14"/>
      <stop offset="100%" stop-color="#151920"/>
    </linearGradient>
    <linearGradient id="glow" x1="0" y1="0" x2="0" y2="1" gradientUnits="objectBoundingBox">
      <stop offset="0%" stop-color="#18BC9C" stop-opacity="0.3"/>
      <stop offset="100%" stop-color="#18BC9C" stop-opacity="0"/>
    </linearGradient>
  </defs>

  <!-- Background -->
  <rect width="1200" height="400" fill="url(#bg)"/>

  <!-- Grid lines -->
  <g stroke="#30363d" stroke-width="0.5" opacity="0.4">
    <line x1="0" y1="80" x2="1200" y2="80"/>
    <line x1="0" y1="160" x2="1200" y2="160"/>
    <line x1="0" y1="240" x2="1200" y2="240"/>
    <line x1="0" y1="320" x2="1200" y2="320"/>
    <line x1="200" y1="0" x2="200" y2="400"/>
    <line x1="400" y1="0" x2="400" y2="400"/>
    <line x1="600" y1="0" x2="600" y2="400"/>
    <line x1="800" y1="0" x2="800" y2="400"/>
    <line x1="1000" y1="0" x2="1000" y2="400"/>
  </g>

  <!-- Terminal window chrome -->
  <rect x="80" y="40" width="440" height="320" rx="12" fill="#151920" stroke="#30363d" stroke-width="1.5"/>
  <circle cx="108" cy="64" r="6" fill="#f85149"/>
  <circle cx="128" cy="64" r="6" fill="#d29922"/>
  <circle cx="148" cy="64" r="6" fill="#3fb950"/>
  <text x="260" y="68" font-family="monospace" font-size="12" fill="#8b949e" text-anchor="middle">old-stack.toml</text>

  <!-- Old stack content -->
  <text x="104" y="105" font-family="monospace" font-size="14" fill="#8b949e">[dependencies]</text>
  <text x="104" y="130" font-family="monospace" font-size="14" fill="#f85149">hugo = "0.75.1"</text>
  <text x="104" y="155" font-family="monospace" font-size="14" fill="#f85149">bootstrap = "3.x"</text>
  <text x="104" y="180" font-family="monospace" font-size="14" fill="#f85149">jquery = "1.x"</text>
  <text x="104" y="205" font-family="monospace" font-size="14" fill="#f85149">angular = "1.x"</text>
  <text x="104" y="230" font-family="monospace" font-size="14" fill="#f85149">highlight = "9.x"</text>
  <text x="104" y="270" font-family="monospace" font-size="13" fill="#8b949e"># Last updated: 2020</text>
  <text x="104" y="295" font-family="monospace" font-size="13" fill="#8b949e"># Status: end-of-life</text>

  <!-- Arrow -->
  <g transform="translate(560, 180)">
    <line x1="0" y1="0" x2="60" y2="0" stroke="#18BC9C" stroke-width="3" stroke-linecap="round"/>
    <polygon points="60,-8 78,0 60,8" fill="#18BC9C"/>
    <text x="39" y="28" font-family="monospace" font-size="12" fill="#18BC9C" text-anchor="middle">migrate</text>
  </g>

  <!-- New stack terminal -->
  <rect x="680" y="40" width="440" height="320" rx="12" fill="#151920" stroke="#18BC9C" stroke-width="1.5" stroke-opacity="0.4"/>
  <rect x="680" y="40" width="440" height="320" rx="12" fill="url(#glow)" opacity="0.15"/>
  <circle cx="708" cy="64" r="6" fill="#f85149"/>
  <circle cx="728" cy="64" r="6" fill="#d29922"/>
  <circle cx="748" cy="64" r="6" fill="#3fb950"/>
  <text x="860" y="68" font-family="monospace" font-size="12" fill="#18BC9C" text-anchor="middle">new-stack.toml</text>

  <!-- New stack content -->
  <text x="704" y="105" font-family="monospace" font-size="14" fill="#8b949e">[dependencies]</text>
  <text x="704" y="130" font-family="monospace" font-size="14" fill="#3fb950">astro = "5.17"</text>
  <text x="704" y="155" font-family="monospace" font-size="14" fill="#3fb950">react = "19.x"</text>
  <text x="704" y="180" font-family="monospace" font-size="14" fill="#3fb950">tailwind = "4.x"</text>
  <text x="704" y="205" font-family="monospace" font-size="14" fill="#3fb950">mdx = "4.x"</text>
  <text x="704" y="230" font-family="monospace" font-size="14" fill="#3fb950">typescript = "5.x"</text>
  <text x="704" y="270" font-family="monospace" font-size="13" fill="#18BC9C"># Status: modern</text>
  <text x="704" y="295" font-family="monospace" font-size="13" fill="#18BC9C"># JS shipped: 0kb (default)</text>

  <!-- Bottom prompt -->
  <text x="600" y="390" font-family="monospace" font-size="11" fill="#8b949e" text-anchor="middle" opacity="0.6">$ astro build &amp;&amp; echo "22 posts migrated" ✓</text>
</svg>
